<svg width="14" height="21" viewBox="0 0 14 21" fill="none" xmlns="http://www.w3.org/2000/svg">
<path d="M7 4.72874C7.66304 4.72874 8.29893 4.99157 8.76777 5.45942C9.23661 5.92726 9.5 6.5618 9.5 7.22344C9.5 7.55104 9.43534 7.87544 9.3097 8.17812C9.18406 8.48079 8.99991 8.7558 8.76777 8.98745C8.53562 9.21911 8.26002 9.40287 7.95671 9.52824C7.65339 9.65361 7.3283 9.71813 7 9.71813C6.33696 9.71813 5.70107 9.4553 5.23223 8.98745C4.76339 8.51961 4.5 7.88507 4.5 7.22344C4.5 6.5618 4.76339 5.92726 5.23223 5.45942C5.70107 4.99157 6.33696 4.72874 7 4.72874ZM7 0.238281C8.85652 0.238281 10.637 0.974215 11.9497 2.28419C13.2625 3.59416 14 5.37086 14 7.22344C14 12.4623 7 20.1959 7 20.1959C7 20.1959 0 12.4623 0 7.22344C0 5.37086 0.737498 3.59416 2.05025 2.28419C3.36301 0.974215 5.14348 0.238281 7 0.238281ZM7 2.23404C5.67392 2.23404 4.40215 2.75971 3.46447 3.6954C2.52678 4.63109 2 5.90017 2 7.22344C2 8.22131 2 10.2171 7 16.9128C12 10.2171 12 8.22131 12 7.22344C12 5.90017 11.4732 4.63109 10.5355 3.6954C9.59785 2.75971 8.32608 2.23404 7 2.23404Z" fill="#70855F"/>
</svg>
