<svg width="25" height="27" viewBox="0 0 25 27" fill="none" xmlns="http://www.w3.org/2000/svg">
<path fill-rule="evenodd" clip-rule="evenodd" d="M19.9084 14.1082L21.3487 16.5764C21.8713 17.4823 21.9732 18.5589 21.6164 19.5436C21.2595 20.5151 20.5075 21.2766 19.5261 21.6179C18.1495 22.0906 16.7348 22.4582 15.3073 22.6945L15.3071 22.6945C15.167 22.7208 15.0268 22.747 14.8867 22.7602C14.6572 22.7995 14.4278 22.8258 14.1984 22.8521C13.918 22.8914 13.6248 22.9177 13.3317 22.944C12.5414 23.0227 11.7385 23.0621 10.9355 23.0621C10.1198 23.0621 9.30405 23.0227 8.50107 22.944C8.15694 22.9177 7.82555 22.8783 7.49416 22.8258C7.30298 22.7995 7.11179 22.7733 6.93335 22.747C6.86325 22.7339 6.79315 22.7241 6.72305 22.7142C6.65295 22.7044 6.58285 22.6945 6.51275 22.6814C5.09798 22.4319 3.7087 22.0906 2.33217 21.6179C1.31251 21.2766 0.535029 20.5151 0.190896 19.5567C-0.153237 18.6114 -0.0257806 17.5217 0.522283 16.5633L1.96254 14.0951C2.26844 13.5568 2.54884 12.5196 2.54884 11.8894V9.44742C2.54884 4.68163 6.30882 0.821723 10.9355 0.808594C15.5494 0.808594 19.3094 4.68163 19.3094 9.44742V11.9025C19.3094 12.5327 19.5898 13.5699 19.9084 14.1082ZM10.8973 12.2439C11.4326 12.2439 11.8659 11.7975 11.8659 11.2461V7.17612C11.8659 6.62471 11.4326 6.17832 10.8973 6.17832C10.3619 6.17832 9.92859 6.62471 9.92859 7.17612V11.2461C9.92859 11.7975 10.3619 12.2439 10.8973 12.2439ZM10.9105 27.0004C12.5674 27.0004 13.9822 25.9107 14.5175 24.3878C14.3008 24.414 14.0969 24.4403 13.8929 24.4665C13.7208 24.4931 13.5429 24.5078 13.363 24.5225C13.2765 24.5296 13.1896 24.5368 13.1027 24.5453C12.389 24.6109 11.6625 24.6503 10.9359 24.6503C10.1967 24.6503 9.45745 24.6109 8.73095 24.5453C8.42505 24.519 8.11916 24.4797 7.82601 24.4403C7.74213 24.4279 7.66107 24.4185 7.58151 24.4092C7.4918 24.3988 7.40399 24.3885 7.31618 24.3746C7.49462 24.9129 7.80051 25.4381 8.20838 25.8319C8.90939 26.5803 9.90355 27.0004 10.9105 27.0004Z" fill="white"/>
<circle cx="19" cy="6" r="6" fill="#FF0000"/>
<path d="M20.9501 7.26953V8.08203H17.0985V7.38672L18.9462 5.39062C19.1389 5.17188 19.2912 4.98177 19.4032 4.82031C19.5152 4.65885 19.5946 4.51302 19.6415 4.38281C19.691 4.25 19.7157 4.1237 19.7157 4.00391C19.7157 3.82943 19.6844 3.67708 19.6219 3.54688C19.5594 3.41406 19.4683 3.3112 19.3485 3.23828C19.2313 3.16536 19.0868 3.12891 18.9149 3.12891C18.7248 3.12891 18.5621 3.17318 18.4266 3.26172C18.2938 3.34766 18.1923 3.46745 18.1219 3.62109C18.0542 3.77474 18.0204 3.95052 18.0204 4.14844H16.9852C16.9852 3.8125 17.0634 3.50651 17.2196 3.23047C17.3759 2.95182 17.5998 2.72917 17.8915 2.5625C18.1831 2.39583 18.5295 2.3125 18.9305 2.3125C19.3212 2.3125 19.6519 2.3776 19.9227 2.50781C20.1936 2.63542 20.3993 2.81771 20.5399 3.05469C20.6805 3.29167 20.7509 3.57422 20.7509 3.90234C20.7509 4.08464 20.7209 4.26432 20.661 4.44141C20.6011 4.61849 20.5165 4.79427 20.4071 4.96875C20.3003 5.14062 20.1727 5.3151 20.0243 5.49219C19.8759 5.66927 19.7105 5.85026 19.5282 6.03516L18.4188 7.26953H20.9501Z" fill="white"/>
</svg>
