<svg width="18" height="22" viewBox="0 0 18 22" fill="none" xmlns="http://www.w3.org/2000/svg">
<path d="M8.88971 6.89966L7.81971 8.76139C7.57971 9.17177 7.77971 9.51209 8.24971 9.51209H9.51971C9.99971 9.51209 10.1897 9.85241 9.94971 10.2628L8.88971 12.1245" stroke="#B3B1B0" stroke-width="1.5" stroke-linecap="round" stroke-linejoin="round"/>
<path d="M5.39 21.0227C7.68 20.3721 10.1 20.3721 12.39 21.0227M5.19 17.059V15.898C2.89 14.5067 1 11.7941 1 8.91145C1 3.95683 5.55 0.0732188 10.69 1.19426C12.95 1.69473 14.93 3.19613 15.96 5.26806C18.05 9.47197 15.85 13.9361 12.62 15.8879V17.049C12.62 17.3393 12.73 18.0099 11.66 18.0099H6.15C5.05 18.0199 5.19 17.5895 5.19 17.059Z" stroke="#B3B1B0" stroke-width="1.5" stroke-linecap="round" stroke-linejoin="round"/>
</svg>
