<svg width="20" height="22" viewBox="0 0 20 22" fill="none" xmlns="http://www.w3.org/2000/svg">
<path d="M8.17899 2.19972L2.01657 7.69425C1.32297 8.30805 0.878348 9.60496 1.02952 10.5752L2.2122 18.4556C2.42562 19.8614 3.63499 20.9999 4.91549 20.9999H14.875C16.1466 20.9999 17.3648 19.8515 17.5782 18.4556L18.7609 10.5752C18.9032 9.60496 18.4586 8.30805 17.7739 7.69425L11.6115 2.20962C10.66 1.35822 9.12159 1.35822 8.17899 2.19972V2.19972Z" stroke="#E4A11B" stroke-width="1.2" stroke-linecap="round" stroke-linejoin="round"/>
<path d="M9.89372 14.9281C10.4834 14.9281 11.0489 14.6722 11.4659 14.2167C11.8829 13.7612 12.1172 13.1435 12.1172 12.4993C12.1172 11.8552 11.8829 11.2374 11.4659 10.7819C11.0489 10.3264 10.4834 10.0706 9.89372 10.0706C9.30403 10.0706 8.73849 10.3264 8.32152 10.7819C7.90454 11.2374 7.67029 11.8552 7.67029 12.4993C7.67029 13.1435 7.90454 13.7612 8.32152 14.2167C8.73849 14.6722 9.30403 14.9281 9.89372 14.9281Z" stroke="#E4A11B" stroke-width="1.2" stroke-linecap="round" stroke-linejoin="round"/>
</svg>
