<svg width="16" height="16" viewBox="0 0 16 16" fill="none" xmlns="http://www.w3.org/2000/svg">
<path d="M14.3213 10.3751C13.5203 10.2762 12.7249 10.136 11.9384 9.95503C11.7463 9.89083 11.541 9.87729 11.3422 9.91574C11.1434 9.95419 10.9579 10.0433 10.8036 10.1745C10.6031 10.3789 10.0244 10.9503 9.42301 11.5406C7.26823 10.4809 5.52558 8.7361 4.46797 6.57953C5.05425 5.97784 5.60271 5.40264 5.82588 5.20208C5.95701 5.04774 6.0461 4.86214 6.08454 4.66326C6.12297 4.46438 6.10944 4.25894 6.04526 4.06682C5.86416 3.27867 5.72402 2.48165 5.62541 1.67899C5.61484 1.57677 5.58358 1.47778 5.53353 1.38805C5.48348 1.29831 5.41569 1.21972 5.33429 1.15705C5.25289 1.09438 5.15959 1.04895 5.06007 1.02353C4.96055 0.998104 4.8569 0.993224 4.75544 1.00918H1.53277C1.39974 1.0212 1.27522 1.07978 1.18112 1.17461C1.08702 1.26944 1.02938 1.39445 1.01835 1.52762C0.810313 4.43767 2.433 7.55207 2.76207 8.14997V8.17268L2.80746 8.25971C3.98546 10.3037 5.6816 12.0006 7.72468 13.1792L7.89111 13.2738C8.64761 13.6749 11.6547 15.1886 14.4651 14.9805C14.5995 14.9711 14.7263 14.9142 14.8226 14.8199C14.9189 14.7256 14.9786 14.6001 14.9908 14.4658V11.2454C15.0068 11.1439 15.0019 11.0402 14.9765 10.9407C14.9511 10.8411 14.9057 10.7478 14.843 10.6663C14.7804 10.5849 14.7018 10.5171 14.6121 10.467C14.5224 10.4169 14.4235 10.3857 14.3213 10.3751Z" stroke="#E4A11B" stroke-width="1.5" stroke-linecap="round" stroke-linejoin="round"/>
</svg>
