<svg width="20" height="17" viewBox="0 0 20 17" fill="none" xmlns="http://www.w3.org/2000/svg">
<path d="M18.2609 4.04762H15.5043L13.913 2.42857H8.69565V4.04762H13.1478L14.7391 5.66667H18.2609V15.381H4.34783V8.09524H2.6087V15.381C2.6087 16.2714 3.3913 17 4.34783 17H18.2609C19.2174 17 20 16.2714 20 15.381V5.66667C20 4.77619 19.2174 4.04762 18.2609 4.04762ZM6.95652 10.5238C6.95652 12.7581 8.90435 14.5714 11.3043 14.5714C13.7043 14.5714 15.6522 12.7581 15.6522 10.5238C15.6522 8.28952 13.7043 6.47619 11.3043 6.47619C8.90435 6.47619 6.95652 8.28952 6.95652 10.5238ZM11.3043 8.09524C12.7391 8.09524 13.913 9.1881 13.913 10.5238C13.913 11.8595 12.7391 12.9524 11.3043 12.9524C9.86957 12.9524 8.69565 11.8595 8.69565 10.5238C8.69565 9.1881 9.86957 8.09524 11.3043 8.09524ZM4.34783 4.04762H6.95652V2.42857H4.34783V0H2.6087V2.42857H0V4.04762H2.6087V6.47619H4.34783V4.04762Z" fill="black"/>
<path d="M15.1478 4.3981L15.2947 4.54762H15.5043H18.2609C18.9755 4.54762 19.5 5.08542 19.5 5.66667V15.381C19.5 15.9622 18.9755 16.5 18.2609 16.5H4.34783C3.63315 16.5 3.1087 15.9622 3.1087 15.381V8.59524H3.84783V15.381V15.881H4.34783H18.2609H18.7609V15.381V5.66667V5.16667H18.2609H14.9488L13.5044 3.69713L13.3575 3.54762H13.1478H9.19565V2.92857H13.7034L15.1478 4.3981ZM4.34783 3.54762H3.84783V4.04762V5.97619H3.1087V4.04762V3.54762H2.6087H0.5V2.92857H2.6087H3.1087V2.42857V0.5H3.84783V2.42857V2.92857H4.34783H6.45652V3.54762H4.34783ZM11.3043 14.0714C9.1462 14.0714 7.45652 12.4489 7.45652 10.5238C7.45652 8.59876 9.1462 6.97619 11.3043 6.97619C13.4625 6.97619 15.1522 8.59876 15.1522 10.5238C15.1522 12.4489 13.4625 14.0714 11.3043 14.0714ZM14.413 10.5238C14.413 8.87886 12.981 7.59524 11.3043 7.59524C9.62772 7.59524 8.19565 8.87886 8.19565 10.5238C8.19565 12.1688 9.62772 13.4524 11.3043 13.4524C12.981 13.4524 14.413 12.1688 14.413 10.5238Z" stroke="white" stroke-opacity="0.5"/>
</svg>
