<svg width="14" height="21" viewBox="0 0 14 21" fill="none" xmlns="http://www.w3.org/2000/svg">
<path d="M7.21663 9.5077C7.12938 9.49811 7.02468 9.49811 6.9287 9.5077C5.92724 9.47033 4.97834 9.00595 4.28294 8.21291C3.58755 7.41987 3.20026 6.36045 3.20311 5.25899C3.20311 2.90925 4.93067 1.00069 7.07703 1.00069C7.58519 0.990616 8.09017 1.09066 8.56316 1.29511C9.03614 1.49956 9.46786 1.80441 9.83366 2.19226C10.1995 2.58011 10.4922 3.04336 10.6951 3.55556C10.8981 4.06777 11.0072 4.61889 11.0164 5.17747C11.0256 5.73605 10.9345 6.29114 10.7485 6.81106C10.5626 7.33097 10.2852 7.80553 9.93238 8.20763C9.57954 8.60972 9.1581 8.93149 8.69213 9.15456C8.22616 9.37763 7.72479 9.49763 7.21663 9.5077V9.5077ZM2.8541 13.0467C0.742642 14.6004 0.742642 17.1324 2.8541 18.6765C5.25349 20.4412 9.18849 20.4412 11.5879 18.6765C13.6993 17.1228 13.6993 14.5908 11.5879 13.0467C9.19722 11.2916 5.26222 11.2916 2.8541 13.0467V13.0467Z" stroke="#B3B1B0" stroke-width="1.2" stroke-linecap="round" stroke-linejoin="round"/>
</svg>
